<?xml version="1.0" standalone="no"?><!DOCTYPE svg PUBLIC "-//W3C//DTD SVG 1.1//EN" "http://www.w3.org/Graphics/SVG/1.1/DTD/svg11.dtd"><svg t="1708239088432" class="icon" viewBox="0 0 1566 1024" version="1.1" xmlns="http://www.w3.org/2000/svg" p-id="11179" xmlns:xlink="http://www.w3.org/1999/xlink" width="305.859375" height="200"><path d="M804.020706 504.048941L1559.491765 25.178353c0-14.516706-18.070588-22.889412-75.414589-22.889412H123.964235C72.342588 2.288941 48.549647 2.228706 48.549647 25.178353l755.471059 478.870588z m751.616 385.505883c4.818824-12.890353 7.529412-26.744471 7.529412-41.261177V127.216941a118.061176 118.061176 0 0 0-0.240942-6.806588l-475.25647 301.176471 468.028235 467.968z m-566.211765-440.079059l-154.985412 98.183529a52.163765 52.163765 0 0 1-30.418823 8.131765 52.163765 52.163765 0 0 1-30.418824-8.07153L618.616471 449.475765l-483.388236 483.328c21.202824 20.540235 50.055529 33.249882 81.79953 33.249882h1173.985882c31.744 0 60.596706-12.649412 81.799529-33.249882l-483.388235-483.328z m-469.11247-27.888941L45.056 120.470588a118.061176 118.061176 0 0 0-0.180706 6.806588v721.076706c0 14.456471 2.650353 28.370824 7.529412 41.261177l467.907765-467.968z" fill="#FF964A" p-id="11180"></path></svg>